<svg width="375" height="211" viewBox="0 0 375 211" fill="none" xmlns="http://www.w3.org/2000/svg">
<g clip-path="url(#clip0_1965_6758)">
<mask id="mask0_1965_6758" style="mask-type:alpha" maskUnits="userSpaceOnUse" x="0" y="0" width="375" height="211">
<path d="M0 0H375V210.94H0V0Z" fill="white"/>
</mask>
<g mask="url(#mask0_1965_6758)">
<rect width="375" height="210.94" fill="#FFF0C8"/>
<circle cx="187.884" cy="51.8838" r="51.8838" fill="#FFE07D"/>
<circle opacity="0.5" cx="188" cy="42" r="96" fill="#FFE07D"/>
<path fill-rule="evenodd" clip-rule="evenodd" d="M171.78 180.039C173.406 179.798 174.919 180.921 175.16 182.547L180.132 216.105C180.373 217.731 179.25 219.244 177.625 219.485C175.999 219.726 174.486 218.603 174.245 216.977L169.272 183.419C169.031 181.793 170.154 180.28 171.78 180.039Z" fill="#092538"/>
<path fill-rule="evenodd" clip-rule="evenodd" d="M204.17 179.739C202.545 179.498 201.031 180.621 200.79 182.246L195.818 215.805C195.577 217.43 196.7 218.943 198.326 219.184C199.951 219.425 201.465 218.303 201.705 216.677L206.678 183.119C206.919 181.493 205.796 179.98 204.17 179.739Z" fill="#092538"/>
<path fill-rule="evenodd" clip-rule="evenodd" d="M167.824 85.5244C166.546 84.491 164.672 84.6891 163.639 85.967C155.593 95.9158 150.396 104.143 147.527 112.94C144.649 121.763 144.195 130.901 145.195 142.533C145.336 144.17 146.777 145.383 148.415 145.243C150.052 145.102 151.265 143.66 151.125 142.023C150.16 130.804 150.651 122.554 153.185 114.786C155.728 106.991 160.41 99.4241 168.266 89.7096C169.3 88.4317 169.102 86.5579 167.824 85.5244Z" fill="#092538"/>
<path fill-rule="evenodd" clip-rule="evenodd" d="M207.732 85.8247C209.01 84.7912 210.883 84.9894 211.917 86.2673C219.963 96.2161 225.159 104.443 228.029 113.24C230.907 122.063 231.361 131.202 230.361 142.833C230.22 144.47 228.779 145.684 227.141 145.543C225.504 145.402 224.29 143.961 224.431 142.323C225.395 131.104 224.904 122.854 222.371 115.086C219.828 107.292 215.146 99.7244 207.289 90.0099C206.256 88.732 206.454 86.8582 207.732 85.8247Z" fill="#092538"/>
<path d="M234.592 153.099C234.592 179.127 213.492 198.185 187.463 198.185C161.435 198.185 140.334 179.127 140.334 153.099C140.334 127.07 161.435 102.03 187.463 102.03C213.492 102.03 234.592 127.07 234.592 153.099Z" fill="#42BCF5"/>
<ellipse cx="5.07858" cy="3.21735" rx="5.07858" ry="3.21735" transform="matrix(0.998091 -0.0617614 0.0586663 0.998278 157.317 128.352)" fill="#F49AD3"/>
<ellipse cx="5.07858" cy="3.21735" rx="5.07858" ry="3.21735" transform="matrix(0.998091 -0.0617614 0.0586663 0.998278 207.838 128.352)" fill="#F49AD3"/>
<path d="M223.943 121.678C225.561 124.092 227.366 126.705 228.464 129.172C209.688 102.017 171.067 89.1031 143.836 134.422C150.935 116.263 167.775 102.03 187.419 102.03C202.143 102.03 215.291 110.026 223.943 121.678Z" fill="#FDD000"/>
<path opacity="0.3" d="M187.464 198.183C213.493 198.183 234.593 179.126 234.593 153.097C234.593 143.15 231.511 133.348 226.251 125.032C233.075 168.109 211.684 188.806 177.116 197.148C180.446 197.828 183.909 198.183 187.464 198.183Z" fill="#4B9CD3"/>
<path d="M172.708 130C171.525 130 170.551 130.948 170.7 132.104C171.171 135.747 172.857 139.158 175.525 141.783C178.7 144.909 183.007 146.664 187.499 146.664C191.99 146.664 196.297 144.909 199.472 141.783C202.14 139.158 203.826 135.747 204.297 132.104C204.446 130.948 203.473 130 202.289 130L172.708 130Z" fill="white"/>
<path fill-rule="evenodd" clip-rule="evenodd" d="M172.167 119.222C169.686 118.159 166.768 118.797 165.165 119.844C164.202 120.473 162.691 121.932 162.062 120.968C161.433 120.005 163.18 118.239 164.143 117.61C166.33 115.846 170.135 114.86 173.548 115.84C176.917 116.806 179.564 119.362 181.475 122.698C182.047 123.696 181.702 124.969 180.704 125.541C179.706 126.113 178.283 125.619 177.711 124.62C176.14 121.878 174.21 120.097 172.167 119.222Z" fill="#092538"/>
<path fill-rule="evenodd" clip-rule="evenodd" d="M203.019 119.222C205.5 118.159 208.418 118.797 210.021 119.844C210.985 120.473 212.495 121.932 213.124 120.968C213.753 120.005 212.006 118.239 211.043 117.61C208.856 115.846 205.051 114.86 201.638 115.84C198.269 116.806 195.622 119.362 193.711 122.698C193.139 123.696 193.484 124.969 194.482 125.541C195.481 126.113 196.903 125.619 197.475 124.62C199.046 121.878 200.977 120.097 203.019 119.222Z" fill="#092538"/>
<path d="M202.532 73.21C202.532 75.3139 202.141 77.3972 201.379 79.3409C200.618 81.2847 199.502 83.0508 198.096 84.5385C196.689 86.0261 195.019 87.2062 193.182 88.0113C191.344 88.8165 189.374 89.2308 187.385 89.2308C185.395 89.2308 183.426 88.8165 181.588 88.0113C179.75 87.2062 178.08 86.0261 176.674 84.5385C175.267 83.0508 174.151 81.2847 173.39 79.3409C172.629 77.3972 172.237 75.3139 172.237 73.21L202.532 73.21Z" fill="#FDD000"/>
<path d="M187.385 46C198.425 60.7314 202.722 67.8737 202.533 73.4643H172.237C171.901 67.5414 176.745 60.2557 187.385 46Z" fill="#FDD000"/>
<path d="M207.551 61.4376C207.551 62.358 207.379 63.2695 207.045 64.1199C206.711 64.9702 206.222 65.7429 205.605 66.3938C204.987 67.0446 204.255 67.5609 203.448 67.9132C202.642 68.2654 201.778 68.4467 200.905 68.4467C200.032 68.4467 199.168 68.2654 198.362 67.9132C197.555 67.5609 196.823 67.0446 196.206 66.3938C195.589 65.7429 195.099 64.9702 194.765 64.1199C194.431 63.2695 194.259 62.358 194.259 61.4376L207.551 61.4376Z" fill="#FDD000"/>
<path d="M200.905 49.5332C205.749 55.9782 207.634 59.1029 207.551 61.5488H194.259C194.112 58.9576 196.237 55.7701 200.905 49.5332Z" fill="#FDD000"/>
<path d="M195.795 76.2079C195.795 77.3282 195.577 78.4375 195.155 79.4724C194.732 80.5074 194.112 81.4478 193.33 82.24C192.549 83.0321 191.621 83.6605 190.6 84.0892C189.579 84.5179 188.485 84.7385 187.38 84.7385C186.275 84.7385 185.18 84.5179 184.159 84.0892C183.138 83.6605 182.211 83.0321 181.429 82.24C180.648 81.4478 180.028 80.5074 179.605 79.4724C179.182 78.4375 178.964 77.3282 178.964 76.2079L195.795 76.2079Z" fill="#F2B518"/>
<path d="M187.38 61.7195C193.513 69.5635 195.9 73.3665 195.795 76.3433H178.964C178.778 73.1896 181.469 69.3102 187.38 61.7195Z" fill="#F2B518"/>
<path d="M204.227 62.2806C204.227 62.7357 204.138 63.1865 203.966 63.607C203.794 64.0275 203.542 64.4096 203.223 64.7314C202.905 65.0533 202.527 65.3086 202.112 65.4828C201.696 65.657 201.25 65.7466 200.8 65.7466C200.35 65.7466 199.905 65.657 199.489 65.4828C199.073 65.3086 198.695 65.0533 198.377 64.7314C198.059 64.4096 197.806 64.0275 197.634 63.607C197.462 63.1865 197.373 62.7357 197.373 62.2806L204.227 62.2806Z" fill="#F2B518"/>
<path d="M200.8 56.3938C203.298 59.5809 204.27 61.1261 204.227 62.3356H197.373C197.297 61.0542 198.393 59.478 200.8 56.3938Z" fill="#F2B518"/>
<path fill-rule="evenodd" clip-rule="evenodd" d="M176.525 96.211C177.373 97.0218 177.486 98.373 176.777 99.2291L169.477 106.642C168.769 107.498 167.503 108.847 166.612 107.881C165.574 106.755 166.459 105.685 167.167 104.829L173.709 96.293C174.417 95.4369 175.678 95.4002 176.525 96.211Z" fill="#3B8AC8"/>
<path fill-rule="evenodd" clip-rule="evenodd" d="M197.994 96.211C197.147 97.0218 197.034 98.373 197.742 99.2291L205.042 106.642C205.75 107.498 207.016 108.847 207.907 107.881C208.945 106.755 208.06 105.685 207.352 104.829L200.81 96.293C200.102 95.4369 198.841 95.4002 197.994 96.211Z" fill="#3B8AC8"/>
</g>
</g>
<defs>
<clipPath id="clip0_1965_6758">
<rect width="375" height="210.94" fill="white"/>
</clipPath>
</defs>
</svg>
