<svg width="64" height="64" viewBox="0 0 64 64" fill="none" xmlns="http://www.w3.org/2000/svg">
<g id="Image_1x1_Circle" clip-path="url(#clip0_1965_6626)">
<circle id="Ellipse 652" cx="32" cy="32" r="32" fill="#F2675F"/>
<g id="HotStreak_Dottie_Icon">
<mask id="mask0_1965_6626" style="mask-type:alpha" maskUnits="userSpaceOnUse" x="0" y="0" width="64" height="64">
<circle id="Ellipse 725" cx="32" cy="32" r="32" fill="white"/>
</mask>
<g mask="url(#mask0_1965_6626)">
<g id="Group 1662">
<path id="Line 3 (Stroke)" fill-rule="evenodd" clip-rule="evenodd" d="M22.108 24.7372C21.4807 24.2298 20.5608 24.3271 20.0534 24.9545C16.1033 29.8386 13.5523 33.8776 12.1437 38.1962C10.7308 42.5277 10.508 47.0139 10.9988 52.724C11.0679 53.5279 11.7756 54.1236 12.5794 54.0545C13.3833 53.9854 13.979 53.2777 13.9099 52.4738C13.4365 46.966 13.6775 42.9159 14.9215 39.1023C16.1696 35.2759 18.4682 31.5609 22.3252 26.7918C22.8326 26.1645 22.7354 25.2446 22.108 24.7372Z" fill="#092538"/>
<path id="Line 33 (Stroke)" fill-rule="evenodd" clip-rule="evenodd" d="M41.6995 24.8839C42.3269 24.3766 43.2468 24.4738 43.7541 25.1012C47.7042 29.9853 50.2552 34.0243 51.6639 38.343C53.0767 42.6744 53.2996 47.1606 52.8088 52.8708C52.7397 53.6746 52.032 54.2703 51.2281 54.2012C50.4242 54.1321 49.8286 53.4244 49.8977 52.6205C50.3711 47.1127 50.13 43.0627 48.8861 39.249C47.638 35.4226 45.3393 31.7077 41.4823 26.9385C40.9749 26.3112 41.0722 25.3913 41.6995 24.8839Z" fill="#092538"/>
<path id="Ellipse 677" d="M54.8866 57.9105C54.8866 70.6886 44.5279 80.0445 31.7497 80.0445C18.9716 80.0445 8.61285 70.6886 8.61285 57.9105C8.61285 45.1324 18.9716 32.8396 31.7497 32.8396C44.5279 32.8396 54.8866 45.1324 54.8866 57.9105Z" fill="#42BCF5"/>
<ellipse id="Ellipse 686" cx="2.49321" cy="1.57948" rx="2.49321" ry="1.57948" transform="matrix(0.998091 -0.0617614 0.0586663 0.998278 16.9498 45.7622)" fill="#F49AD3"/>
<ellipse id="Ellipse 687" cx="2.49321" cy="1.57948" rx="2.49321" ry="1.57948" transform="matrix(0.998091 -0.0617614 0.0586663 0.998278 41.7521 45.7622)" fill="#F49AD3"/>
<path id="Intersect" d="M49.6586 42.4853C50.4527 43.6703 51.3387 44.9535 51.8779 46.1642C42.6601 32.8333 23.7003 26.4934 10.3318 48.7417C13.817 39.8268 22.0841 32.8396 31.7278 32.8396C38.9561 32.8396 45.411 36.765 49.6586 42.4853Z" fill="#FDD000"/>
<path id="Intersect_2" opacity="0.3" d="M31.7495 80.0445C44.5276 80.0445 54.8864 70.6886 54.8864 57.9105C54.8864 53.0272 53.3735 48.2148 50.791 44.1323C54.141 65.2801 43.64 75.4411 26.6696 79.5361C28.3043 79.87 30.0043 80.0445 31.7495 80.0445Z" fill="#4B9CD3"/>
<path id="Ellipse 13" d="M24.5056 46.5718C23.9244 46.5718 23.4464 47.0373 23.5198 47.6046C23.7511 49.3935 24.5786 51.0679 25.8881 52.3567C27.4472 53.891 29.5617 54.7529 31.7665 54.7529C33.9713 54.7529 36.0858 53.891 37.6448 52.3567C38.9544 51.068 39.7819 49.3935 40.0132 47.6046C40.0865 47.0373 39.6085 46.5718 39.0274 46.5718L24.5056 46.5718Z" fill="white"/>
<path id="Line 31 (Stroke)" fill-rule="evenodd" clip-rule="evenodd" d="M24.2399 41.2796C23.0221 40.7577 21.5895 41.071 20.8024 41.5851C20.3295 41.8939 19.5881 42.6099 19.2793 42.1371C18.9705 41.6642 19.8281 40.7972 20.3009 40.4884C21.3746 39.6224 23.2424 39.1383 24.9181 39.6191C26.5718 40.0937 27.8713 41.3486 28.8097 42.9862C29.0905 43.4763 28.9209 44.1012 28.4309 44.382C27.9409 44.6628 27.2426 44.42 26.9618 43.9299C26.1903 42.5835 25.2427 41.7094 24.2399 41.2796Z" fill="#092538"/>
<path id="Line 31 (Stroke)_2" fill-rule="evenodd" clip-rule="evenodd" d="M39.3865 41.2798C40.6042 40.7579 42.0368 41.0713 42.824 41.5853C43.2969 41.8941 44.0383 42.6102 44.3471 42.1373C44.6559 41.6644 43.7983 40.7974 43.3254 40.4886C42.2517 39.6226 40.3839 39.1385 38.7083 39.6194C37.0545 40.0939 35.755 41.3488 34.8166 42.9865C34.5358 43.4765 34.7054 44.1014 35.1955 44.3822C35.6855 44.663 36.3837 44.4202 36.6645 43.9302C37.4361 42.5837 38.3837 41.7096 39.3865 41.2798Z" fill="#092538"/>
<g id="Vector">
<path d="M39.1476 18.6914C39.1476 19.7242 38.9552 20.747 38.5815 21.7012C38.2078 22.6554 37.66 23.5225 36.9695 24.2528C36.2789 24.9832 35.4591 25.5625 34.5569 25.9578C33.6547 26.353 32.6877 26.5565 31.7111 26.5565C30.7345 26.5565 29.7675 26.353 28.8653 25.9578C27.9631 25.5625 27.1433 24.9832 26.4528 24.2528C25.7622 23.5225 25.2144 22.6554 24.8407 21.7012C24.467 20.747 24.2747 19.7242 24.2747 18.6914L39.1476 18.6914Z" fill="#FDD000"/>
<path d="M31.7111 5.33325C37.1309 12.5653 39.2404 16.0716 39.1476 18.8162H24.2747C24.1099 15.9085 26.4876 12.3318 31.7111 5.33325Z" fill="#FDD000"/>
</g>
<g id="Vector_2">
<path d="M41.6109 12.9113C41.6109 13.3632 41.5265 13.8106 41.3625 14.2281C41.1985 14.6456 40.9582 15.0249 40.6552 15.3445C40.3523 15.664 39.9926 15.9174 39.5967 16.0904C39.2009 16.2633 38.7766 16.3523 38.3482 16.3523C37.9197 16.3523 37.4954 16.2633 37.0996 16.0904C36.7037 15.9174 36.344 15.664 36.0411 15.3445C35.7381 15.0249 35.4978 14.6456 35.3338 14.2281C35.1698 13.8106 35.0854 13.3632 35.0854 12.9113L41.6109 12.9113Z" fill="#FDD000"/>
<path d="M38.3482 7.06714C40.7261 10.2312 41.6516 11.7652 41.6109 12.9659H35.0854C35.0132 11.6938 36.0564 10.129 38.3482 7.06714Z" fill="#FDD000"/>
</g>
<g id="Vector_3">
<path d="M35.8399 20.1626C35.8399 20.7125 35.733 21.2571 35.5254 21.7652C35.3178 22.2733 35.0135 22.735 34.6298 23.1239C34.2462 23.5127 33.7908 23.8212 33.2895 24.0317C32.7883 24.2421 32.251 24.3505 31.7085 24.3505C31.166 24.3505 30.6287 24.2421 30.1275 24.0317C29.6263 23.8212 29.1708 23.5127 28.7872 23.1239C28.4036 22.735 28.0993 22.2733 27.8916 21.7652C27.684 21.2571 27.5772 20.7125 27.5772 20.1626L35.8399 20.1626Z" fill="#F2B518"/>
<path d="M31.7085 13.0498C34.7195 16.9006 35.8914 18.7676 35.8399 20.2291H27.5772C27.4856 18.6808 28.8066 16.7763 31.7085 13.0498Z" fill="#F2B518"/>
</g>
<g id="Vector_4">
<path d="M39.9793 13.3253C39.9793 13.5487 39.9358 13.77 39.8513 13.9764C39.7667 14.1829 39.6428 14.3705 39.4866 14.5285C39.3303 14.6865 39.1449 14.8118 38.9408 14.8973C38.7367 14.9828 38.5179 15.0269 38.297 15.0269C38.0761 15.0269 37.8573 14.9828 37.6532 14.8973C37.4491 14.8118 37.2636 14.6865 37.1074 14.5285C36.9512 14.3705 36.8272 14.1829 36.7427 13.9764C36.6582 13.77 36.6146 13.5487 36.6146 13.3253H39.9793Z" fill="#F2B518"/>
<path d="M38.297 10.4353C39.5231 11.9999 40.0003 12.7585 39.9793 13.3523H36.6146C36.5774 12.7232 37.1153 11.9494 38.297 10.4353Z" fill="#F2B518"/>
</g>
<path id="Vector 520 (Stroke)" fill-rule="evenodd" clip-rule="evenodd" d="M26.3795 29.9828C26.7955 30.3809 26.8509 31.0442 26.5033 31.4645L22.9194 35.1035C22.5718 35.5237 21.9502 36.1861 21.513 35.7119C21.0033 35.1592 21.4378 34.634 21.7854 34.2138L24.9969 30.0231C25.3445 29.6028 25.9635 29.5848 26.3795 29.9828Z" fill="#3B8AC8"/>
<path id="Vector 520 (Stroke)_2" fill-rule="evenodd" clip-rule="evenodd" d="M36.9191 29.9828C36.5031 30.3809 36.4477 31.0442 36.7953 31.4645L40.3791 35.1035C40.7267 35.5237 41.3483 36.1861 41.7855 35.7119C42.2952 35.1592 41.8607 34.634 41.5131 34.2138L38.3017 30.0231C37.9541 29.6028 37.335 29.5848 36.9191 29.9828Z" fill="#3B8AC8"/>
</g>
</g>
</g>
</g>
<defs>
<clipPath id="clip0_1965_6626">
<rect width="64" height="64" fill="white"/>
</clipPath>
</defs>
</svg>
