<svg width="335" height="132" viewBox="0 0 335 132" fill="none" xmlns="http://www.w3.org/2000/svg">
<mask id="mask0_1965_10867" style="mask-type:alpha" maskUnits="userSpaceOnUse" x="0" y="0" width="335" height="132">
<path d="M0 8C0 3.58172 3.58172 0 8 0H327C331.418 0 335 3.58172 335 8V132H0V8Z" fill="white"/>
</mask>
<g mask="url(#mask0_1965_10867)">
<path d="M0 0H335V132H0V0Z" fill="#0556FF"/>
<path opacity="0.3" d="M159.161 221.911C87.892 222.137 -28.0133 225.568 -28.9877 155.425C-29.6882 105 -12.9999 71.5926 31.0001 63C58.0002 57.7272 49.2182 41.6571 48.902 19.3381C48.5923 -2.98089 68.9326 -23.462 106.484 -23.9843C144.035 -24.5067 158.038 -11.9446 159.412 10.3615C160.193 23.0912 151.185 30.6749 151.378 44.4881C151.572 58.3012 168.679 65.3367 193.053 57.7272C227.893 46.8547 250.957 14.4048 335.364 23.8586C418.875 33.2157 455.045 114.798 430.387 167.026C411.783 206.447 357.015 221.292 159.161 221.911Z" fill="#87C5FF"/>
<path d="M39.9408 81.7393C39.0882 81.2462 38.7965 80.1553 39.2898 79.3023C39.8807 78.2805 39.5303 76.9689 38.5085 76.3779C37.6558 75.8848 37.3641 74.7939 37.8574 73.9409C38.3506 73.088 39.4418 72.7968 40.2944 73.2898C41.3162 73.8808 42.6278 73.5304 43.2188 72.5086C43.712 71.6556 44.8032 71.3644 45.6558 71.8575C46.5084 72.3506 46.8001 73.4415 46.3069 74.2945C45.7159 75.3163 46.0663 76.6279 47.0882 77.2189C47.9408 77.712 48.2325 78.8029 47.7392 79.6559C47.246 80.5088 46.1549 80.8 45.3022 80.307C44.2804 79.716 42.9688 80.0664 42.3778 81.0882C41.8847 81.9409 40.7938 82.2326 39.9408 81.7393Z" fill="#48D8B2"/>
<path d="M279.941 105.739C279.088 105.246 278.796 104.155 279.29 103.302C279.881 102.28 279.53 100.969 278.508 100.378C277.656 99.8848 277.364 98.7939 277.857 97.9409C278.351 97.088 279.442 96.7968 280.294 97.2898C281.316 97.8808 282.628 97.5304 283.219 96.5086C283.712 95.6556 284.803 95.3644 285.656 95.8575C286.508 96.3506 286.8 97.4415 286.307 98.2945C285.716 99.3163 286.066 100.628 287.088 101.219C287.941 101.712 288.233 102.803 287.739 103.656C287.246 104.509 286.155 104.8 285.302 104.307C284.28 103.716 282.969 104.066 282.378 105.088C281.885 105.941 280.794 106.233 279.941 105.739Z" fill="#48D8B2"/>
<path d="M201.941 33.7393C201.088 33.2462 200.796 32.1553 201.29 31.3023C201.881 30.2805 201.53 28.9689 200.508 28.3779C199.656 27.8848 199.364 26.7939 199.857 25.9409C200.351 25.088 201.442 24.7968 202.294 25.2898C203.316 25.8808 204.628 25.5304 205.219 24.5086C205.712 23.6556 206.803 23.3644 207.656 23.8575C208.508 24.3506 208.8 25.4415 208.307 26.2945C207.716 27.3163 208.066 28.6279 209.088 29.2189C209.941 29.712 210.233 30.8029 209.739 31.6559C209.246 32.5088 208.155 32.8 207.302 32.307C206.28 31.716 204.969 32.0664 204.378 33.0882C203.885 33.9409 202.794 34.2326 201.941 33.7393Z" fill="#48D8B2"/>
<path d="M167.037 47.9865C166.642 47.7579 166.334 47.3787 166.207 46.9026L164.734 41.3901C164.612 40.9329 164.676 40.4464 164.913 40.037C165.15 39.6275 165.54 39.3288 165.997 39.2068L171.509 37.7337C171.966 37.6116 172.453 37.676 172.863 37.9128C173.272 38.1496 173.571 38.5392 173.693 38.9967L175.166 44.5097C175.288 44.9669 175.224 45.4533 174.987 45.8628C174.75 46.2723 174.36 46.571 173.903 46.6931L168.39 48.1659C167.914 48.2928 167.432 48.2149 167.037 47.9865ZM168.641 42.1931L169.193 44.2588L171.259 43.7072L170.707 41.6411L168.641 42.1931Z" fill="#87C5FF"/>
<path d="M185.037 103.986C184.642 103.758 184.334 103.379 184.207 102.903L182.734 97.3901C182.612 96.9329 182.676 96.4464 182.913 96.037C183.15 95.6275 183.54 95.3288 183.997 95.2068L189.509 93.7337C189.966 93.6116 190.453 93.676 190.863 93.9128C191.272 94.1496 191.571 94.5392 191.693 94.9967L193.166 100.51C193.288 100.967 193.224 101.453 192.987 101.863C192.75 102.272 192.36 102.571 191.903 102.693L186.39 104.166C185.914 104.293 185.432 104.215 185.037 103.986ZM186.641 98.1931L187.193 100.259L189.259 99.7072L188.707 97.6411L186.641 98.1931Z" fill="#87C5FF"/>
<path d="M332.037 118.986C331.642 118.758 331.334 118.379 331.207 117.903L329.734 112.39C329.612 111.933 329.676 111.446 329.913 111.037C330.15 110.627 330.54 110.329 330.997 110.207L336.509 108.734C336.966 108.612 337.453 108.676 337.863 108.913C338.272 109.15 338.571 109.539 338.693 109.997L340.166 115.51C340.288 115.967 340.224 116.453 339.987 116.863C339.75 117.272 339.36 117.571 338.903 117.693L333.39 119.166C332.914 119.293 332.432 119.215 332.037 118.986ZM333.641 113.193L334.193 115.259L336.259 114.707L335.707 112.641L333.641 113.193Z" fill="#87C5FF"/>
<path d="M324.037 72.9865C323.642 72.7579 323.334 72.3787 323.207 71.9026L321.734 66.3901C321.612 65.9329 321.676 65.4464 321.913 65.037C322.15 64.6275 322.54 64.3288 322.997 64.2068L328.509 62.7337C328.966 62.6116 329.453 62.676 329.863 62.9128C330.272 63.1496 330.571 63.5392 330.693 63.9967L332.166 69.5097C332.288 69.9669 332.224 70.4533 331.987 70.8628C331.75 71.2723 331.36 71.571 330.903 71.6931L325.39 73.1659C324.914 73.2928 324.432 73.2149 324.037 72.9865ZM325.641 67.1931L326.193 69.2588L328.259 68.7072L327.707 66.6411L325.641 67.1931Z" fill="#87C5FF"/>
<path d="M-0.963014 68.9865C-1.35829 68.7579 -1.6661 68.3787 -1.79332 67.9026L-3.26607 62.3901C-3.38821 61.9329 -3.32365 61.4464 -3.08684 61.037C-2.85003 60.6275 -2.46012 60.3288 -2.00342 60.2068L3.50925 58.7337C3.96643 58.6116 4.45335 58.676 4.86283 58.9128C5.27231 59.1496 5.57117 59.5392 5.69314 59.9967L7.16602 65.5097C7.28816 65.9669 7.2236 66.4533 6.98679 66.8628C6.74997 67.2723 6.36006 67.571 5.90288 67.6931L0.390389 69.1659C-0.0856227 69.2928 -0.568049 69.2149 -0.963014 68.9865ZM0.640603 63.1931L1.19277 65.2588L3.25868 64.7072L2.70669 62.6411L0.640603 63.1931Z" fill="#87C5FF"/>
<path d="M311.235 19.0429L272.158 5.75669L233.081 -7.52953C221.007 15.7387 215.125 61.0425 234.62 80.3859L245.438 84.0671L256.256 87.7484C283.533 84.3047 306.571 44.8318 311.235 19.0429Z" fill="#F8D158"/>
<path opacity="0.1" d="M233.477 -5.09372L240.469 -2.71424C228.837 19.262 220.427 62.3751 240.129 81.1182L236.497 79.8827C218.488 60.7456 221.845 16.8826 233.477 -5.09372Z" fill="#704506"/>
<path d="M248.304 107.333L228.753 100.683L234.692 80.4171L256.262 87.7429L248.304 107.333Z" fill="#F8D158"/>
<path d="M248.303 107.333L228.753 100.683C211.237 97.9039 206.29 100.869 204.603 102.936L266.051 123.828C265.991 121.165 263.885 115.802 248.303 107.333Z" fill="#F8D158"/>
<path opacity="0.4" d="M236.172 81.7898L231.677 100.124L233.018 100.58L239.215 82.8323L236.172 81.7898Z" fill="#EBA816"/>
<path opacity="0.4" d="M232.664 102.017L231.063 101.47C215.702 99.2532 209.434 101.54 207.91 103.526L213.174 105.317C214.698 103.331 220.599 99.7092 232.664 102.017Z" fill="#EBA816"/>
<path d="M241.247 3.5974C240.622 5.42299 238.636 6.39758 236.816 5.78264C234.991 5.16098 234.019 3.17602 234.636 1.3561C235.26 -0.469487 237.247 -1.44406 239.066 -0.829121C240.892 -0.207465 241.871 1.77181 241.247 3.5974Z" fill="white"/>
<path d="M234.468 9.53437C235.765 9.98055 236.456 11.3865 236.015 12.6784C235.567 13.976 234.16 14.6686 232.868 14.2292C231.571 13.783 230.88 12.377 231.321 11.0851C231.756 9.78653 233.17 9.08819 234.468 9.53437Z" fill="white"/>
<path d="M278.495 70.8961C278.313 70.8309 278.141 70.7352 277.997 70.5921C277.491 70.0877 277.486 69.2637 277.998 68.7515C278.988 67.7554 279.245 67.4464 279.808 66.7762C280.045 66.4842 280.344 66.1287 280.76 65.6396C281.231 65.0928 282.047 65.0367 282.595 65.4946C283.141 65.9649 283.202 66.7874 282.738 67.3286C282.322 67.8053 282.044 68.1438 281.814 68.4301C281.243 69.1183 280.923 69.5032 279.845 70.5855C279.476 70.9538 278.95 71.053 278.495 70.8961Z" fill="white"/>
<path d="M286.692 60.8663C286.577 60.8254 286.463 60.7721 286.351 60.694C285.768 60.2769 285.632 59.4605 286.05 58.878C293.974 47.8021 300.322 34.4221 303.473 22.1644C303.651 21.4743 304.361 21.0474 305.057 21.2308C305.747 21.4074 306.173 22.1172 305.989 22.813C302.768 35.3706 296.269 49.0623 288.167 60.3915C287.828 60.8621 287.219 61.0417 286.692 60.8663Z" fill="white"/>
<path d="M273.286 55.6051C280.405 48.005 280.021 36.0819 272.428 28.9742C264.835 21.8664 252.909 22.2655 245.79 29.8656C238.671 37.4656 239.056 49.3887 246.648 56.4965C254.241 63.6042 266.167 63.2051 273.286 55.6051Z" fill="#EBA816"/>
<path opacity="0.2" d="M277.787 38.0156C278.208 40.8901 277.983 43.8974 276.976 46.8389C273.613 56.6889 262.903 61.9644 253.055 58.6144C246.821 56.4922 242.436 51.4307 240.897 45.4982C241.891 52.2584 246.541 58.2344 253.455 60.5761C263.303 63.9261 274.013 58.6506 277.376 48.8006C278.609 45.1855 278.678 41.46 277.787 38.0156Z" fill="#704506"/>
<path d="M263.132 31.9028L263.007 40.4468L271.09 43.1928L262.931 45.7192L262.8 54.2565L257.886 47.2848L249.726 49.8112L254.847 42.9732L249.927 35.9948L258.011 38.7408L263.132 31.9028Z" fill="white"/>
<path d="M216 46C204.954 46 196 54.954 196 66C196 77.046 204.954 86 216 86C227.046 86 236 77.046 236 66C236 54.954 227.046 46 216 46Z" fill="#00C48C"/>
<path d="M216 81C207.716 81 201 74.284 201 66C201 57.716 207.716 51 216 51C224.284 51 231 57.716 231 66C231 74.284 224.284 81 216 81Z" fill="#48D8B2"/>
<path d="M223.435 61.272C224.216 62.053 224.216 63.319 223.435 64.1L216.364 71.172L213.536 74L210.707 71.172L208.586 69.05C208.196 68.66 208 68.148 208 67.636C208 67.124 208.196 66.612 208.586 66.2219C209.367 65.4409 210.633 65.4409 211.414 66.2219L213.536 68.3429L220.607 61.272C220.998 60.882 221.509 60.686 222.021 60.686C222.533 60.686 223.044 60.882 223.435 61.272Z" fill="white"/>
<path d="M0 0H335V132H0V0Z" fill="url(#paint0_linear_1965_10867)"/>
</g>
<defs>
<linearGradient id="paint0_linear_1965_10867" x1="167.997" y1="3.7646e-08" x2="167.527" y2="132.002" gradientUnits="userSpaceOnUse">
<stop stop-color="#0556FF" stop-opacity="0"/>
<stop offset="1" stop-color="#0556FF"/>
</linearGradient>
</defs>
</svg>
